# xmcd
# Copyright (C) 1995-1998 Ti Kan
#
# Track frame offsets:
#       183
#       12325
#       40560
#       51595
#       61743
#       87415
#       100300
#       113853
#       131915
#       140525
#       154983
#       165820
#       177495
#       205048
#       219060
#       230955
#       241435
#
# Disc length: 3500 seconds
#
# Revision: 0
# Processed by: cddbd v1.4PL0 Copyright (c) Steve Scherf et al.
# Submitted via: CD-DA X-Tractor v0.20
#
DISCID=ec0daa11
DTITLE=Johnny Guitar Watson - 16 Greatest Hits
DYEAR=1900
DGENRE=
TTITLE0=Gangster Of Love
TTITLE1=When Did You Leave Heaven
TTITLE2=Johnny Guitar
TTITLE3=Blues Side
TTITLE4=Misty
TTITLE5=She Moves Me
TTITLE6=Someone Cares For Me
TTITLE7=Accoustic Instrumental
TTITLE8=Looking Back
TTITLE9=Witchcraft
TTITLE10=Reconsider Baby
TTITLE11=The Eagle Is Back
TTITLE12=Polka Dots And Moonbeams
TTITLE13=I Cried For You
TTITLE14=One Room Country Shack
TTITLE15=Exactly Like You
TTITLE16=I'll Remember April
EXTD=
EXTT0=
EXTT1=
EXTT2=
EXTT3=
EXTT4=
EXTT5=
EXTT6=
EXTT7=
EXTT8=
EXTT9=
EXTT10=
EXTT11=
EXTT12=
EXTT13=
EXTT14=
EXTT15=
EXTT16=
PLAYORDER=
